<svg width="32" height="39" viewBox="0 0 32 39" fill="none" xmlns="http://www.w3.org/2000/svg">
<path d="M11.7027 27.1239V28.7135H17.5376C17.4787 28.84 17.4388 28.9302 17.3938 29.0203C16.742 30.3291 16.3485 31.7124 16.2323 33.1703C16.2185 33.3436 16.1335 33.3471 16.0035 33.3471C14.6583 33.3454 13.3131 33.3471 11.9679 33.3471H11.7079V34.9384H16.2063C16.3121 36.3599 16.6449 37.6999 17.2412 38.9965H0.608398V0H30.1661V22.3551C29.9026 22.3325 29.6426 22.3048 29.3826 22.2909C25.7353 22.0794 22.563 23.2045 19.8848 25.6868C19.4445 26.0942 19.0735 26.5761 18.6609 27.0129C18.5985 27.0788 18.4737 27.1204 18.3784 27.1204C16.2497 27.1256 14.1209 27.1256 11.9922 27.1256H11.7027V27.1239ZM29.9407 9.7266C26.7251 6.51271 23.4991 3.29016 20.2835 0.0780067V9.7266H29.9407ZM23.8961 14.7017H11.7131V16.2705H23.8961V14.7017ZM23.8943 20.9319H11.7097V22.5007H23.8943V20.9319ZM4.0355 19.9802C4.02684 20.027 4.0147 20.0669 4.0147 20.1067C4.0147 21.0688 4.0147 22.0309 4.01123 22.993C4.01123 23.1525 4.08578 23.1715 4.21579 23.1715C5.15707 23.1681 6.10009 23.1715 7.04137 23.1698C7.09511 23.1698 7.14885 23.1577 7.20432 23.1525V19.9819H4.0355V19.9802ZM7.19738 35.7289V32.5514C7.14711 32.5462 7.11418 32.5393 7.07951 32.5393C6.11742 32.5393 5.1536 32.541 4.19152 32.5358C4.03377 32.5358 4.01123 32.6052 4.01123 32.7386C4.0147 33.6799 4.01123 34.6212 4.0147 35.5625C4.0147 35.6162 4.0251 35.67 4.03204 35.7306H7.19738V35.7289ZM4.02857 13.5715V16.7386H7.20432V13.5715H4.02857ZM7.20605 25.9243H4.02684V29.0793H7.20605V25.9243Z" fill="#171C8F"/>
<path d="M31.4302 39H20.3705C20.3705 38.3482 20.348 37.7068 20.3775 37.0671C20.4087 36.3963 20.5179 35.7324 20.7935 35.11C21.0813 34.4617 21.5198 33.9677 22.2635 33.8775C22.6605 33.829 23.0661 33.8481 23.4683 33.855C23.6555 33.8585 23.7976 33.8099 23.9259 33.6695C24.0646 33.517 24.2241 33.3835 24.3801 33.2344C24.9313 33.6452 25.5415 33.8637 26.2228 33.8481C26.8971 33.8325 27.49 33.5898 28.0274 33.1633C28.2336 33.3592 28.4313 33.5603 28.6445 33.7423C28.719 33.8065 28.8352 33.8481 28.934 33.855C29.2096 33.8706 29.4887 33.8602 29.766 33.8602C30.6623 33.8602 31.2776 34.3144 31.5342 35.1724C31.6954 35.7098 31.7336 36.2628 31.6815 36.8158C31.6122 37.5439 31.5151 38.2685 31.4302 39Z" fill="#171C8F"/>
<path d="M28.8188 30.6931C28.6611 31.1213 28.5606 31.5321 28.3664 31.8909C27.9053 32.7438 27.1963 33.2881 26.1978 33.3054C25.0329 33.3245 24.2667 32.6849 23.7848 31.676C23.6583 31.4107 23.6132 31.1091 23.5213 30.8266C23.4988 30.7607 23.4485 30.6809 23.3896 30.6549C22.7915 30.4001 22.5904 29.5993 23.0151 29.1052C23.0775 29.0341 23.2006 28.9769 23.2942 28.9769C25.2288 28.97 27.1634 28.9735 29.0979 28.9683C29.2401 28.9683 29.3302 29.0185 29.41 29.1295C29.8589 29.7431 29.533 30.5527 28.8206 30.6931H28.8188Z" fill="#171C8F"/>
<path d="M29.8555 27.3353V28.3945H22.5488V27.37C22.5592 27.3613 22.5714 27.3457 22.58 27.3457C22.9493 27.4185 23.0689 27.2122 23.185 26.8967C23.5092 26.0161 24.109 25.3522 24.9584 24.8582C24.9636 24.9604 24.9688 25.0298 24.9688 25.1008C24.9688 25.7596 24.9688 26.4166 24.9688 27.0753C24.9688 27.5936 25.2461 27.8658 25.7679 27.8658C26.0591 27.8658 26.3504 27.8658 26.6416 27.8658C27.1547 27.8658 27.4269 27.5953 27.4269 27.0874C27.4269 26.3611 27.4269 25.6348 27.4269 24.8738C27.784 25.0419 28.0665 25.269 28.3231 25.5273C28.7686 25.9745 29.1135 26.4911 29.2921 27.1013C29.3476 27.2902 29.4342 27.3665 29.6267 27.3353C29.6943 27.3249 29.7636 27.3353 29.8555 27.3353Z" fill="#171C8F"/>
<path d="M25.2566 25.692C25.2566 25.2222 25.2566 24.7524 25.2566 24.2809C25.2566 23.9134 25.3762 23.7938 25.7368 23.7921C26.028 23.7921 26.3175 23.7886 26.6087 23.7921C26.9242 23.7973 27.1374 23.9932 27.1392 24.3052C27.1461 25.2586 27.1444 26.2138 27.1392 27.1672C27.1392 27.4272 26.9797 27.5745 26.7214 27.578C26.3955 27.5815 26.0714 27.578 25.7455 27.578C25.3728 27.578 25.2549 27.4601 25.2549 27.0788C25.2549 26.6159 25.2549 26.1513 25.2549 25.6885L25.2566 25.692Z" fill="#171C8F"/>
</svg>
