<svg width="36" height="36" viewBox="0 0 36 36" fill="none" xmlns="http://www.w3.org/2000/svg">
<g clip-path="url(#clip0_951_2028)">
<path d="M25.7276 34.0477C25.7276 32.992 26.0591 31.7383 27.1279 28.8821C27.2164 28.6793 27.2547 28.4576 27.2395 28.2364C27.2395 28.23 27.2969 28.1837 26.8867 28.1837H21.8632C21.2484 28.1803 20.6598 27.9309 20.2258 27.4898C19.7917 27.0487 19.5473 26.4518 19.5459 25.829V25.3458C19.2948 25.1076 19.0962 24.8183 18.9631 24.4969C18.83 24.1755 18.7654 23.8293 18.7735 23.4808C18.7785 22.9163 18.9613 22.3681 19.2952 21.9161C18.9611 21.4642 18.7783 20.9159 18.7735 20.3513C18.7649 20.0028 18.8293 19.6565 18.9624 19.335C19.0956 19.0135 19.2944 18.7243 19.5459 18.4863V18.0031C19.549 17.3813 19.7943 16.7858 20.2284 16.3461C20.6625 15.9064 21.2504 15.658 21.8643 15.6549H30.75C31.8763 15.6578 32.9557 16.1122 33.7521 16.9189C34.5485 17.7255 34.9972 18.8188 35 19.9596V25.0477C35.0025 26.0543 34.6942 27.0364 34.1181 27.8565L29.4091 34.885C29.2452 35.2148 28.9955 35.493 28.6869 35.6897C28.3783 35.8864 28.0226 35.994 27.6581 36.001C27.1483 35.9951 26.6609 35.7875 26.3001 35.4225C25.9394 35.0576 25.7339 34.5641 25.7276 34.0477ZM5.25001 20.3503C4.12362 20.3477 3.04408 19.8933 2.2476 19.0866C1.45112 18.2799 1.00254 17.1865 1.00001 16.0456V10.9585C0.997561 9.95169 1.3059 8.96925 1.88189 8.14865L6.58982 1.11696C6.75349 0.78692 7.00313 0.508488 7.31176 0.311787C7.62038 0.115087 7.97624 0.00760734 8.34082 0.000976562C8.85132 0.00684812 9.33928 0.214861 9.70028 0.580507C10.0613 0.946152 10.2666 1.44038 10.2724 1.95745C10.2724 3.0121 9.94094 4.26583 8.87101 7.12306C8.78394 7.32624 8.74745 7.54797 8.76476 7.76876C8.76476 7.77414 8.70738 7.8215 9.11751 7.8215H14.1399C14.7538 7.82489 15.3415 8.07337 15.7756 8.51301C16.2096 8.95265 16.455 9.54796 16.4583 10.1697V10.655C16.7097 10.8929 16.9085 11.182 17.0416 11.5032C17.1748 11.8245 17.2392 12.1707 17.2308 12.519C17.2255 13.0835 17.0428 13.6316 16.7091 14.0837C17.0426 14.5364 17.2253 15.0848 17.2308 15.6495C17.2394 15.998 17.175 16.3444 17.0418 16.6659C16.9087 16.9873 16.7098 17.2766 16.4583 17.5145V17.9977C16.455 18.6195 16.2096 19.2148 15.7756 19.6544C15.3415 20.0941 14.7538 20.3426 14.1399 20.346L5.25001 20.3503Z" fill="#171C8F"/>
</g>
<defs>
<clipPath id="clip0_951_2028">
<rect width="36" height="36" fill="white" transform="translate(0 0.000976562)"/>
</clipPath>
</defs>
</svg>
