<svg width="36" height="36" viewBox="0 0 36 36" fill="none" xmlns="http://www.w3.org/2000/svg">
<path fill-rule="evenodd" clip-rule="evenodd" d="M21.2872 24.2098L21.8432 23.7918L22.6782 24.9748L22.1222 25.3918C20.7302 26.3658 18.9222 26.9218 16.9742 26.9218C15.0262 26.9218 13.2172 26.3658 11.8262 25.3918L11.2702 24.9748L12.1042 23.7918L12.6612 24.2098C13.7742 24.9748 15.3742 25.4618 16.9742 25.4618C18.6442 25.4618 20.1742 25.0438 21.2872 24.2098ZM18.9912 15.0268C20.5212 13.8438 25.0432 12.0358 24.9742 12.0358C25.8782 12.4528 27.2702 13.7058 27.2702 13.7058C23.1652 13.9138 18.9912 15.0268 18.9912 15.0268ZM10.1572 12.0358C10.9912 12.0358 11.6172 12.7308 11.6872 13.5658C11.6872 14.4008 10.9912 15.0958 10.1572 15.0958C9.32217 15.0958 8.62717 14.4008 8.62717 13.5658C8.62717 12.7308 9.32217 12.0358 10.1572 12.0358ZM16.9742 0.278832C25.1132 0.278832 31.6522 6.88783 31.6522 14.9578V20.8708H29.7042V15.0268C29.7042 8.00083 24.0002 2.29683 16.9742 2.29683C9.94817 2.29683 4.24417 7.93083 4.24417 14.9568V21.1488H3.68717C3.47817 21.1488 3.27017 21.1488 3.06117 21.0788C4.80017 26.5748 9.80917 30.6088 15.9312 30.7488C16.0702 30.3308 16.4872 29.9838 17.0432 29.9838C17.7392 29.9838 18.2962 30.5398 18.2962 31.2358C18.2962 31.9308 17.7392 32.4878 17.0432 32.4878C16.4872 32.4878 16.0002 32.1398 15.8612 31.6528C12.7123 31.5263 9.68588 30.399 7.22146 28.4349C4.75704 26.4708 2.98304 23.7721 2.15717 20.7308C1.04317 20.1748 0.347168 19.0608 0.347168 17.7408V16.0708C0.347168 14.6788 1.18317 13.4268 2.43517 12.9408C3.47817 5.77383 9.60017 0.278832 16.9742 0.278832Z" fill="#171C8F"/>
</svg>
