<svg width="36" height="36" viewBox="0 0 36 36" fill="none" xmlns="http://www.w3.org/2000/svg">
<path d="M26.577 32.011C26.498 31.9646 26.4327 31.8982 26.3876 31.8185C26.3425 31.7388 26.3192 31.6486 26.32 31.557V28.793L32.683 20.961C32.9076 20.6853 33.0302 20.3406 33.03 19.985V9.36398C33.03 9.09014 32.9212 8.82752 32.7276 8.63389C32.534 8.44026 32.2713 8.33148 31.9975 8.33148C31.7237 8.33148 31.461 8.44026 31.2674 8.63389C31.0738 8.82752 30.965 9.09014 30.965 9.36398V18.352L29.354 19.963L29.323 19.993L29.265 20.052C29.2171 20.0999 29.1602 20.1379 29.0975 20.1639C29.0349 20.1898 28.9678 20.2032 28.9 20.2032C28.8322 20.2032 28.7651 20.1898 28.7025 20.1639C28.6398 20.1379 28.5829 20.0999 28.535 20.052C28.4871 20.004 28.449 19.9471 28.4231 19.8845C28.3972 19.8219 28.3838 19.7548 28.3838 19.687C28.3838 19.6192 28.3972 19.5521 28.4231 19.4894C28.449 19.4268 28.4871 19.3699 28.535 19.322L28.624 19.234C28.7196 19.1484 28.7967 19.0441 28.8507 18.9277C28.9046 18.8113 28.9343 18.685 28.9378 18.5567C28.9414 18.4285 28.9187 18.3008 28.8712 18.1816C28.8237 18.0623 28.7524 17.954 28.6617 17.8633C28.5709 17.7725 28.4626 17.7012 28.3434 17.6538C28.2242 17.6063 28.0965 17.5836 27.9682 17.5871C27.8399 17.5907 27.7137 17.6203 27.5973 17.6743C27.4808 17.7282 27.3766 17.8054 27.291 17.901L22.521 22.671C21.6516 23.5416 21.1632 24.7216 21.163 25.952V31.557C21.163 31.6938 21.1086 31.8251 21.0119 31.9218C20.9151 32.0186 20.7839 32.073 20.647 32.073C20.5101 32.073 20.3789 32.0186 20.2821 31.9218C20.1854 31.8251 20.131 31.6938 20.131 31.557V25.952C20.1315 24.4465 20.7296 23.0027 21.794 21.938L26.564 17.168C26.9352 16.7985 27.4377 16.591 27.9615 16.591C28.4853 16.591 28.9878 16.7985 29.359 17.168L29.938 17.747V9.36398C29.9319 9.08904 29.9809 8.81566 30.0819 8.55989C30.1829 8.30412 30.334 8.0711 30.5263 7.87452C30.7187 7.67793 30.9483 7.52174 31.2018 7.4151C31.4553 7.30847 31.7275 7.25354 32.0025 7.25354C32.2775 7.25354 32.5497 7.30847 32.8032 7.4151C33.0567 7.52174 33.2863 7.67793 33.4787 7.87452C33.671 8.0711 33.8221 8.30412 33.9231 8.55989C34.0241 8.81566 34.0731 9.08904 34.067 9.36398V19.985C34.0667 20.5783 33.8622 21.1535 33.488 21.614L27.353 29.16V31.56C27.3542 31.6513 27.3311 31.7414 27.2861 31.8209C27.2412 31.9004 27.176 31.9667 27.0971 32.0128C27.0183 32.0589 26.9286 32.0833 26.8372 32.0836C26.7459 32.0838 26.6561 32.0598 26.577 32.014V32.011ZM15.222 32.011C15.1432 31.9645 15.078 31.8981 15.033 31.8184C14.9881 31.7386 14.9649 31.6485 14.966 31.557V25.952C14.9659 25.342 14.8457 24.7381 14.6122 24.1746C14.3786 23.6111 14.0364 23.0992 13.605 22.668L8.836 17.901C8.65866 17.7254 8.41903 17.6273 8.1695 17.6279C7.91998 17.6285 7.68086 17.728 7.50442 17.9044C7.32798 18.0808 7.22857 18.32 7.22793 18.5695C7.22729 18.819 7.32547 19.0586 7.501 19.236L7.531 19.266L7.589 19.325C7.63693 19.3729 7.67495 19.4298 7.7009 19.4924C7.72684 19.5551 7.74019 19.6222 7.74019 19.69C7.74019 19.7578 7.72684 19.8249 7.7009 19.8875C7.67495 19.9501 7.63693 20.007 7.589 20.055C7.54107 20.1029 7.48416 20.1409 7.42154 20.1669C7.35891 20.1928 7.29179 20.2062 7.224 20.2062C7.15621 20.2062 7.08909 20.1928 7.02646 20.1669C6.96384 20.1409 6.90693 20.1029 6.859 20.055L5.159 18.355V9.36398C5.159 9.09014 5.05022 8.82752 4.85659 8.63389C4.66296 8.44026 4.40034 8.33148 4.1265 8.33148C3.85266 8.33148 3.59004 8.44026 3.39641 8.63389C3.20278 8.82752 3.094 9.09014 3.094 9.36398V19.985C3.09416 20.3405 3.21669 20.6851 3.441 20.961L9.804 28.793V31.558C9.804 31.6948 9.74964 31.8261 9.65287 31.9228C9.5561 32.0196 9.42485 32.074 9.288 32.074C9.15115 32.074 9.0199 32.0196 8.92313 31.9228C8.82636 31.8261 8.772 31.6948 8.772 31.558V29.158L2.642 21.614C2.2674 21.1537 2.06291 20.5784 2.063 19.985V9.36398C2.05695 9.08904 2.10587 8.81566 2.20691 8.55989C2.30794 8.30412 2.45904 8.0711 2.65135 7.87452C2.84365 7.67793 3.07329 7.52174 3.32677 7.4151C3.58026 7.30847 3.8525 7.25354 4.1275 7.25354C4.4025 7.25354 4.67474 7.30847 4.92823 7.4151C5.18171 7.52174 5.41135 7.67793 5.60365 7.87452C5.79596 8.0711 5.94706 8.30412 6.04809 8.55989C6.14913 8.81566 6.19805 9.08904 6.192 9.36398V17.748L6.771 17.169C7.14224 16.7995 7.64471 16.592 8.1685 16.592C8.69229 16.592 9.19476 16.7995 9.566 17.169L14.336 21.939C15.4004 23.0037 15.9985 24.4475 15.999 25.953V31.558C16 31.6494 15.9767 31.7394 15.9316 31.8189C15.8866 31.8984 15.8213 31.9645 15.7424 32.0106C15.6634 32.0567 15.5737 32.0812 15.4824 32.0814C15.391 32.0816 15.3011 32.0577 15.222 32.012V32.011ZM25.289 22.783C25.289 22.681 25.3192 22.5812 25.3759 22.4964C25.4325 22.4116 25.5131 22.3454 25.6073 22.3064C25.7015 22.2673 25.8052 22.257 25.9053 22.2768C26.0054 22.2966 26.0973 22.3457 26.1695 22.4178C26.2417 22.4898 26.2909 22.5817 26.311 22.6817C26.331 22.7817 26.3209 22.8854 26.282 22.9797C26.2431 23.0741 26.1771 23.1547 26.0924 23.2115C26.0077 23.2683 25.908 23.2988 25.806 23.299C25.6691 23.299 25.5378 23.2448 25.4408 23.1483C25.3437 23.0518 25.2888 22.9208 25.288 22.784L25.289 22.783ZM9.805 22.783C9.805 22.681 9.83524 22.5812 9.89189 22.4964C9.94855 22.4116 10.0291 22.3454 10.1233 22.3064C10.2175 22.2673 10.3212 22.257 10.4213 22.2768C10.5214 22.2966 10.6133 22.3457 10.6855 22.4178C10.7577 22.4898 10.8069 22.5817 10.827 22.6817C10.847 22.7817 10.8369 22.8854 10.798 22.9797C10.7591 23.0741 10.6931 23.1547 10.6084 23.2115C10.5237 23.2683 10.424 23.2988 10.322 23.299C10.1853 23.2987 10.0543 23.2444 9.95742 23.148C9.86058 23.0515 9.80579 22.9207 9.805 22.784V22.783ZM26.321 21.751C26.321 21.649 26.3512 21.5492 26.4079 21.4644C26.4645 21.3796 26.5451 21.3134 26.6393 21.2744C26.7335 21.2353 26.8372 21.225 26.9373 21.2448C27.0374 21.2646 27.1293 21.3137 27.2015 21.3858C27.2737 21.4578 27.3229 21.5497 27.343 21.6497C27.363 21.7497 27.3529 21.8534 27.314 21.9478C27.2751 22.0421 27.2091 22.1227 27.1244 22.1795C27.0397 22.2363 26.94 22.2668 26.838 22.267C26.7011 22.2667 26.5699 22.2123 26.4731 22.1156C26.3762 22.0189 26.3215 21.8878 26.321 21.751ZM8.773 21.751C8.773 21.649 8.80324 21.5492 8.85989 21.4644C8.91655 21.3796 8.99708 21.3134 9.09131 21.2744C9.18553 21.2353 9.28923 21.225 9.3893 21.2448C9.48937 21.2646 9.58131 21.3137 9.65351 21.3858C9.72572 21.4578 9.77494 21.5497 9.79496 21.6497C9.81499 21.7497 9.80491 21.8534 9.76601 21.9478C9.72711 22.0421 9.66113 22.1227 9.5764 22.1795C9.49168 22.2363 9.39201 22.2668 9.29 22.267C9.15314 22.2667 9.02194 22.2123 8.92507 22.1156C8.8282 22.0189 8.77353 21.8878 8.773 21.751ZM27.353 20.719C27.353 20.617 27.3832 20.5172 27.4399 20.4324C27.4965 20.3476 27.5771 20.2814 27.6713 20.2424C27.7655 20.2033 27.8692 20.193 27.9693 20.2128C28.0694 20.2326 28.1613 20.2817 28.2335 20.3538C28.3057 20.4258 28.3549 20.5177 28.375 20.6177C28.395 20.7177 28.3849 20.8214 28.346 20.9157C28.3071 21.0101 28.2411 21.0907 28.1564 21.1475C28.0717 21.2043 27.972 21.2348 27.87 21.235C27.7331 21.2347 27.6019 21.1803 27.5051 21.0836C27.4082 20.9869 27.3535 20.8558 27.353 20.719ZM7.74 20.719C7.74 20.617 7.77024 20.5172 7.82689 20.4324C7.88355 20.3476 7.96408 20.2814 8.05831 20.2424C8.15253 20.2033 8.25623 20.193 8.3563 20.2128C8.45637 20.2326 8.54831 20.2817 8.62051 20.3538C8.69272 20.4258 8.74194 20.5177 8.76196 20.6177C8.78199 20.7177 8.77191 20.8214 8.73301 20.9157C8.69411 21.0101 8.62813 21.0907 8.5434 21.1475C8.45868 21.2043 8.35901 21.2348 8.257 21.235C8.12014 21.2347 7.98894 21.1803 7.89207 21.0836C7.7952 20.9869 7.74053 20.8558 7.74 20.719ZM10.321 11.685V4.28498L18.063 0.000976562L25.805 4.28798V11.688L18.063 17.009L10.321 11.685Z" fill="#171C8F"/>
</svg>
