<svg width="19" height="19" viewBox="0 0 19 19" fill="none" xmlns="http://www.w3.org/2000/svg">
<path fill-rule="evenodd" clip-rule="evenodd" d="M15.8222 14.2668C16.2206 14.5884 16.3532 15.1192 16.1443 15.5919C15.8791 16.217 14.9497 17.3347 14.6458 17.6375C12.9764 19.324 9.12499 17.2403 5.48243 13.585C1.83987 9.929 -0.24664 6.10314 1.42268 4.41722C1.7266 4.11435 2.84556 3.18587 3.47162 2.92108C3.92694 2.73186 4.47788 2.86426 4.80002 3.26202L6.6213 5.57299C7.00092 6.04632 6.92466 6.72762 6.46991 7.12594C5.99523 7.54302 5.67253 7.82713 5.59683 7.90271C4.89393 8.60333 5.89962 10.0432 7.45511 11.5967C9.01173 13.1497 10.4722 14.1725 11.1739 13.4719C11.269 13.3952 11.5353 13.0741 11.9525 12.6002C12.3504 12.1451 13.0339 12.0695 13.508 12.4485L15.8222 14.2668ZM10.1307 6.14121C10.8142 6.2996 11.439 6.64744 11.9332 7.14469C12.4454 7.6561 12.7869 8.28114 12.9201 8.92551C13.0339 9.41759 12.6543 9.89149 12.1421 9.85342C11.9814 9.84706 11.8274 9.7879 11.7039 9.68515C11.5804 9.5824 11.4943 9.4418 11.4591 9.2852C11.3601 8.87635 11.1499 8.50274 10.8518 8.20557C10.5484 7.90327 10.1688 7.69417 9.77041 7.59984C9.46648 7.50495 9.22061 7.23959 9.20126 6.91797C9.16256 6.40543 9.63723 6.027 10.1307 6.14064V6.14121ZM15.1392 10.0807C14.7596 10.0614 14.4562 9.77728 14.4562 9.41816C14.3424 8.24307 13.8495 7.08844 12.9389 6.17871C12.0768 5.29789 10.9239 4.75939 9.69414 4.66326C9.51529 4.64707 9.34812 4.56755 9.22287 4.43905C9.09761 4.31056 9.02252 4.14158 9.01116 3.96264C8.97303 3.50806 9.372 3.12962 9.82676 3.16712C11.3447 3.29952 12.8433 3.94332 14.0003 5.09909C15.1156 6.21794 15.8007 7.69312 15.9354 9.26588C15.973 9.72103 15.5945 10.1182 15.1392 10.0807ZM16.0498 3.03473C17.8336 4.83429 18.7818 7.16401 18.8387 9.53181C18.8575 9.96764 18.4784 10.3273 18.0419 10.2893C17.6435 10.2705 17.3589 9.94832 17.3401 9.56931C17.2832 7.59927 16.4864 5.62981 14.9685 4.11435C13.4699 2.5989 11.4966 1.80395 9.50462 1.72781C9.12499 1.70906 8.80285 1.40563 8.7835 1.02662C8.77502 0.923245 8.78853 0.819248 8.82314 0.721451C8.85774 0.623653 8.91267 0.534264 8.9843 0.459147C9.05594 0.38403 9.14268 0.324881 9.23882 0.285581C9.33497 0.246281 9.43835 0.227716 9.54218 0.231106C11.9138 0.307248 14.2473 1.25448 16.0498 3.03473Z" fill="#171C8F"/>
</svg>
